<?xml version="1.0" encoding="utf-8"?>
<!-- Generator: Adobe Illustrator 16.0.0, SVG Export Plug-In . SVG Version: 6.00 Build 0)  -->
<!DOCTYPE svg PUBLIC "-//W3C//DTD SVG 1.1//EN" "http://www.w3.org/Graphics/SVG/1.1/DTD/svg11.dtd">
<svg version="1.1" id="Layer_1" xmlns="http://www.w3.org/2000/svg" xmlns:xlink="http://www.w3.org/1999/xlink" x="0px" y="0px"
	 width="340.164px" height="95.309px" viewBox="0 0 340.164 95.309" enable-background="new 0 0 340.164 95.309"
	 xml:space="preserve">
<g>
	<rect y="33.422" fill="none" width="111.495" height="61.887"/>
	<text transform="matrix(1 0 0 1 0 77.1016)"><tspan x="0" y="0" fill="#FFFFFF" font-family="'ArialRoundedMTBold'" font-size="60">In a</tspan><tspan x="105.674" y="0" fill="#FFFFFF" font-family="'ArialRoundedMTBold'" font-size="48"> </tspan><tspan x="117.674" y="0" fill="#FFFFFF" font-family="'ArialRoundedMTBold'" font-size="48" letter-spacing="14">	</tspan></text>
	<g>
		<path fill="#8CBCD6" d="M165.42,21.903v20.638c0,0.7,0.569,1.267,1.273,1.267h15.98c0.703,0,1.273-0.567,1.273-1.267
			c0-0.701-0.57-1.269-1.273-1.269c-8.11,0-14.707-8.688-14.707-19.369c0-0.699-0.57-1.267-1.273-1.267
			C165.989,20.636,165.42,21.205,165.42,21.903z"/>
		<ellipse fill="#E6F7FF" cx="182.673" cy="21.905" rx="15.978" ry="20.636"/>
		<path fill="#C8E7F7" d="M170.364,37.271c-3.188-4.118-4.944-9.576-4.944-15.367c0-5.79,1.756-11.248,4.944-15.365
			C173.63,2.323,178,0,182.673,0c4.671,0,9.042,2.321,12.307,6.538c3.188,4.118,4.945,9.576,4.945,15.365
			c0,5.792-1.757,11.249-4.945,15.367c-3.265,4.216-7.636,6.538-12.307,6.538C178.001,43.809,173.63,41.486,170.364,37.271z
			 M167.966,21.904c0,10.68,6.597,19.368,14.707,19.368c8.109,0,14.706-8.688,14.706-19.368c0-10.679-6.597-19.368-14.706-19.368
			C174.563,2.536,167.966,11.225,167.966,21.904z"/>
		<path fill="#7D8F9D" d="M178.267,20.637c0.448-2.609,2.25-4.562,4.406-4.562c2.155,0,3.957,1.952,4.404,4.562
			c0.071,0.408,0.109,0.833,0.109,1.269c0,0.437-0.038,0.86-0.109,1.268c-0.447,2.611-2.25,4.561-4.404,4.561
			c-2.156,0-3.958-1.95-4.406-4.561c-0.071-0.407-0.107-0.831-0.107-1.268C178.16,21.469,178.196,21.045,178.267,20.637z"/>
		<g>
			<path fill="#262C49" d="M178.267,20.637h26.323c0.703,0,1.273,0.567,1.273,1.269c0,0.7-0.57,1.268-1.273,1.268h-26.323
				c-0.071-0.407-0.107-0.831-0.107-1.268C178.16,21.469,178.196,21.045,178.267,20.637z"/>
			<path fill="#262C49" d="M118.943,21.904c0-0.699,0.57-1.268,1.273-1.268h5.938c0.704,0,1.273,0.568,1.273,1.268
				c0,0.701-0.57,1.269-1.273,1.269h-5.938C119.513,23.173,118.943,22.604,118.943,21.904z"/>
		</g>
		<path fill="#C8E7F7" d="M124.881,21.903V76.45c0,0.468,0.259,0.898,0.674,1.118c0.188,0.1,0.395,0.149,0.599,0.149
			c0.249,0,0.497-0.073,0.711-0.215l4.355-2.914l4.357,2.914c0.429,0.287,0.991,0.287,1.419,0l4.358-2.914l4.358,2.914
			c0.43,0.287,0.991,0.287,1.419,0l4.357-2.914l4.357,2.914c0.429,0.287,0.991,0.287,1.42,0l4.359-2.914l4.357,2.914
			c0.391,0.261,0.893,0.286,1.309,0.066s0.675-0.65,0.675-1.118V21.903c0-10.68,6.597-19.368,14.708-19.368
			c0.703,0,1.273-0.567,1.273-1.269c0-0.699-0.57-1.267-1.273-1.267h-40.54c-4.671,0-9.043,2.321-12.307,6.539
			C126.637,10.657,124.882,16.114,124.881,21.903z"/>
		<g>
			<path fill="#8CBCD6" d="M124.881,21.903V76.45c0,0.468,0.26,0.898,0.674,1.118c0.188,0.1,0.395,0.149,0.599,0.149
				c0.25,0,0.497-0.073,0.711-0.215l2.883-1.928V21.903c0-5.789,1.756-11.247,4.944-15.365C137.957,2.321,142.328,0,147,0h-4.866
				c-4.671,0-9.043,2.321-12.307,6.539C126.637,10.657,124.882,16.114,124.881,21.903z"/>
			<path fill="#8CBCD6" d="M161.695,31.59c0-0.7,0.571-1.268,1.273-1.268h3.725c0.703,0,1.273,0.568,1.273,1.268
				c0,0.7-0.57,1.268-1.273,1.268h-3.725C162.266,32.857,161.695,32.29,161.695,31.59z"/>
			<path fill="#8CBCD6" d="M152.491,31.59c0-0.7,0.571-1.268,1.274-1.268h3.725c0.703,0,1.272,0.568,1.272,1.268
				c0,0.7-0.57,1.268-1.272,1.268h-3.725C153.062,32.857,152.491,32.29,152.491,31.59z"/>
			<path fill="#8CBCD6" d="M143.288,31.59c0-0.7,0.57-1.268,1.274-1.268h3.724c0.702,0,1.273,0.568,1.273,1.268
				c0,0.7-0.571,1.268-1.273,1.268h-3.724C143.858,32.857,143.288,32.29,143.288,31.59z"/>
			<path fill="#8CBCD6" d="M134.084,31.59c0-0.7,0.57-1.268,1.273-1.268h3.724c0.704,0,1.273,0.568,1.273,1.268
				c0,0.7-0.569,1.268-1.273,1.268h-3.724C134.655,32.857,134.084,32.29,134.084,31.59z"/>
			<path fill="#8CBCD6" d="M124.882,31.59c0-0.7,0.569-1.268,1.272-1.268h3.725c0.703,0,1.273,0.568,1.273,1.268
				c0,0.7-0.57,1.268-1.273,1.268h-3.725C125.451,32.857,124.882,32.29,124.882,31.59z"/>
		</g>
	</g>
	<rect x="192.011" y="33.818" fill="none" width="148.153" height="44.912"/>
	<text transform="matrix(1 0 0 1 192.0107 77.498)" fill="#FFFFFF" font-family="'ArialRoundedMTBold'" font-size="60">inch</text>
</g>
</svg>
