<?xml version="1.0" encoding="utf-8"?>
<!-- Generator: Adobe Illustrator 16.0.0, SVG Export Plug-In . SVG Version: 6.00 Build 0)  -->
<!DOCTYPE svg PUBLIC "-//W3C//DTD SVG 1.1//EN" "http://www.w3.org/Graphics/SVG/1.1/DTD/svg11.dtd">
<svg version="1.1" id="Capa_1" xmlns="http://www.w3.org/2000/svg" xmlns:xlink="http://www.w3.org/1999/xlink" x="0px" y="0px"
	 width="213px" height="262.154px" viewBox="51.569 0 213 262.154" enable-background="new 51.569 0 213 262.154"
	 xml:space="preserve">
<ellipse fill="#FFFFFF" stroke="#000000" stroke-miterlimit="10" cx="158.069" cy="107.268" rx="79.107" ry="79.875"/>
<g>
	<g id="location-pin_x28_alt_x29_">
		<g>
			<path fill="#A7B2FC" d="M264.569,104.862C264.569,46.95,216.89,0,158.069,0c-58.821,0-106.5,46.95-106.5,104.862
				c0,26.896,10.372,51.349,27.28,69.905h-0.655c0,0,39.856,48.163,63.491,79.196l1.72,0.549c3.195,4.612,8.569,7.643,14.665,7.643
				c5.628,0,10.593-2.63,13.845-6.66l2.539-1.532c23.578-30.951,63.491-79.196,63.491-79.196h-0.655
				C254.198,156.211,264.569,131.757,264.569,104.862z M158.069,174.767c-39.209,0-71.003-31.294-71.003-69.905
				c0-38.611,31.794-69.906,71.003-69.906c39.208,0,71.003,31.295,71.003,69.906C229.072,143.472,197.278,174.767,158.069,174.767z"
				/>
		</g>
	</g>
</g>
<g>
	<g>
		<path fill="#6872D6" d="M164.721,84.3v26.326c0,0.893,0.726,1.617,1.622,1.617h20.361c0.896,0,1.622-0.724,1.622-1.617
			c0-0.894-0.726-1.618-1.622-1.618c-10.333,0-18.738-11.084-18.738-24.708c0-0.893-0.727-1.618-1.623-1.618
			C165.447,82.682,164.721,83.407,164.721,84.3z"/>
		<ellipse fill="#F1F5FC" cx="186.705" cy="84.301" rx="20.36" ry="26.325"/>
		<path fill="#C3CEFD" d="M171.021,103.903c-4.062-5.254-6.3-12.216-6.3-19.603c0-7.387,2.238-14.35,6.3-19.602
			c4.16-5.378,9.729-8.341,15.682-8.341s11.523,2.962,15.682,8.34c4.064,5.253,6.301,12.215,6.301,19.602
			s-2.237,14.349-6.301,19.602c-4.159,5.378-9.729,8.34-15.682,8.34S175.182,109.28,171.021,103.903z M167.966,84.3
			c0,13.624,8.404,24.707,18.737,24.707c10.333,0,18.739-11.083,18.739-24.707c0-13.624-8.406-24.708-18.739-24.708
			S167.966,70.676,167.966,84.3z"/>
		<path fill="#6872D6" d="M181.091,82.683c0.569-3.329,2.867-5.82,5.614-5.82s5.042,2.491,5.611,5.82
			c0.09,0.52,0.138,1.062,0.138,1.618s-0.048,1.098-0.138,1.617c-0.57,3.33-2.866,5.819-5.611,5.819
			c-2.747,0-5.044-2.489-5.614-5.819c-0.09-0.52-0.138-1.061-0.138-1.617S181.001,83.203,181.091,82.683z"/>
		<g>
			<path fill="#7354A5" d="M181.091,82.683h33.54c0.896,0,1.623,0.723,1.623,1.618c0,0.893-0.727,1.617-1.623,1.617h-33.54
				c-0.09-0.52-0.138-1.061-0.138-1.617S181.001,83.203,181.091,82.683z"/>
			<path fill="#7354A5" d="M105.5,84.3c0-0.893,0.727-1.618,1.623-1.618h7.567c0.896,0,1.622,0.725,1.622,1.618
				c0,0.894-0.726,1.618-1.622,1.618h-7.567C106.227,85.917,105.5,85.193,105.5,84.3z"/>
		</g>
		<path fill="#C3CEFD" d="M113.066,84.299v69.583c0,0.598,0.331,1.146,0.861,1.428c0.238,0.127,0.5,0.19,0.762,0.19
			c0.317,0,0.632-0.092,0.905-0.274l5.552-3.718l5.551,3.718c0.547,0.366,1.262,0.366,1.81,0l5.551-3.718l5.555,3.718
			c0.546,0.366,1.262,0.366,1.808,0l5.552-3.718l5.552,3.718c0.547,0.366,1.262,0.366,1.809,0l5.554-3.718l5.552,3.718
			c0.497,0.332,1.139,0.365,1.667,0.084c0.53-0.282,0.86-0.83,0.86-1.428V84.299c0-13.624,8.406-24.708,18.74-24.708
			c0.896,0,1.622-0.724,1.622-1.617s-0.726-1.618-1.622-1.618h-51.656c-5.953,0-11.522,2.962-15.682,8.342
			C115.305,69.952,113.066,76.913,113.066,84.299z"/>
		<g>
			<path fill="#6872D6" d="M113.066,84.299v69.583c0,0.598,0.331,1.146,0.861,1.428c0.238,0.127,0.501,0.19,0.762,0.19
				c0.317,0,0.632-0.092,0.905-0.274l3.674-2.46V84.299c0-7.386,2.237-14.348,6.301-19.601c4.16-5.379,9.729-8.342,15.682-8.342
				h-6.202c-5.953,0-11.522,2.962-15.682,8.342C115.305,69.952,113.066,76.913,113.066,84.299z"/>
			<path fill="#6872D6" d="M159.976,96.656c0-0.894,0.727-1.618,1.623-1.618h4.745c0.896,0,1.623,0.724,1.623,1.618
				c0,0.893-0.727,1.617-1.623,1.617h-4.745C160.702,98.273,159.976,97.549,159.976,96.656z"/>
			<path fill="#6872D6" d="M148.249,96.656c0-0.894,0.725-1.618,1.622-1.618h4.746c0.896,0,1.622,0.724,1.622,1.618
				c0,0.893-0.727,1.617-1.622,1.617h-4.746C148.974,98.273,148.249,97.549,148.249,96.656z"/>
			<path fill="#6872D6" d="M136.521,96.656c0-0.894,0.727-1.618,1.623-1.618h4.745c0.896,0,1.623,0.724,1.623,1.618
				c0,0.893-0.727,1.617-1.623,1.617h-4.745C137.248,98.273,136.521,97.549,136.521,96.656z"/>
			<path fill="#6872D6" d="M124.794,96.656c0-0.894,0.726-1.618,1.623-1.618h4.745c0.897,0,1.623,0.724,1.623,1.618
				c0,0.893-0.726,1.617-1.623,1.617h-4.745C125.521,98.273,124.794,97.549,124.794,96.656z"/>
			<path fill="#6872D6" d="M113.066,96.656c0-0.894,0.727-1.618,1.623-1.618h4.745c0.896,0,1.623,0.724,1.623,1.618
				c0,0.893-0.727,1.617-1.623,1.617h-4.745C113.793,98.273,113.066,97.549,113.066,96.656z"/>
		</g>
	</g>
</g>
</svg>
